<svg xmlns="http://www.w3.org/2000/svg" width="72.771" height="82.981" viewBox="0 0 72.771 82.981">
  <g id="Grupo_7986" data-name="Grupo 7986" transform="translate(-888.637 -594.17)">
    <path id="Trazado_19546" data-name="Trazado 19546" d="M904.372,626.487h6.873a3.226,3.226,0,0,0,3.223-3.223V604.773a1.236,1.236,0,0,0-.356-.86l-9.387-9.387a1.226,1.226,0,0,0-.86-.356H891.86a3.227,3.227,0,0,0-3.223,3.223v25.872a3.226,3.226,0,0,0,3.223,3.223H898.7a1.216,1.216,0,0,0,0-2.431H891.86a.793.793,0,0,1-.792-.792V597.393a.793.793,0,0,1,.792-.792h10.79v6.164a3.227,3.227,0,0,0,3.223,3.223h6.164v17.276a.793.793,0,0,1-.792.792h-6.873a1.215,1.215,0,1,0,0,2.431Zm1.5-22.93a.793.793,0,0,1-.792-.792V598.32l5.237,5.237Z" fill="#cb4f29"/>
    <path id="Trazado_19547" data-name="Trazado 19547" d="M920.446,683.417h-.3a1.216,1.216,0,0,0,0,2.431h.3a1.216,1.216,0,1,0,0-2.431Z" transform="translate(-25.387 -74.783)" fill="#cb4f29"/>
    <path id="Trazado_19548" data-name="Trazado 19548" d="M920.446,712.814h-.3a1.216,1.216,0,0,0,0,2.431h.3a1.216,1.216,0,1,0,0-2.431Z" transform="translate(-25.387 -99.415)" fill="#cb4f29"/>
    <path id="Trazado_19549" data-name="Trazado 19549" d="M920.446,742.209h-.3a1.216,1.216,0,0,0,0,2.431h.3a1.216,1.216,0,1,0,0-2.431Z" transform="translate(-25.387 -124.046)" fill="#cb4f29"/>
    <path id="Trazado_19550" data-name="Trazado 19550" d="M951.478,685.848h8.5a1.216,1.216,0,0,0,0-2.431h-8.5a1.216,1.216,0,0,0,0,2.431Z" transform="translate(-51.637 -74.783)" fill="#cb4f29"/>
    <path id="Trazado_19551" data-name="Trazado 19551" d="M951.478,715.245h8.5a1.216,1.216,0,0,0,0-2.431h-8.5a1.216,1.216,0,0,0,0,2.431Z" transform="translate(-51.637 -99.415)" fill="#cb4f29"/>
    <path id="Trazado_19552" data-name="Trazado 19552" d="M951.478,744.64h8.5a1.216,1.216,0,0,0,0-2.431h-8.5a1.216,1.216,0,0,0,0,2.431Z" transform="translate(-51.637 -124.046)" fill="#cb4f29"/>
    <path id="Trazado_19553" data-name="Trazado 19553" d="M1204.089,623.264V604.773a1.222,1.222,0,0,0-.356-.86l-9.387-9.387a1.227,1.227,0,0,0-.86-.356h-12.005a3.227,3.227,0,0,0-3.223,3.223v25.872a3.227,3.227,0,0,0,3.223,3.223h19.385a3.227,3.227,0,0,0,3.223-3.223ZM1194.7,598.32l5.237,5.237h-4.445a.793.793,0,0,1-.792-.792V598.32Zm-14.013,24.944V597.393a.793.793,0,0,1,.792-.792h10.79v6.164a3.227,3.227,0,0,0,3.223,3.223h6.164v17.276a.793.793,0,0,1-.792.792h-19.385a.793.793,0,0,1-.792-.792Z" transform="translate(-242.681)" fill="#cb4f29"/>
    <path id="Trazado_19554" data-name="Trazado 19554" d="M1210.067,683.417h-.3a1.216,1.216,0,0,0,0,2.431h.3a1.216,1.216,0,1,0,0-2.431Z" transform="translate(-268.069 -74.783)" fill="#cb4f29"/>
    <path id="Trazado_19555" data-name="Trazado 19555" d="M1210.067,712.814h-.3a1.216,1.216,0,0,0,0,2.431h.3a1.216,1.216,0,1,0,0-2.431Z" transform="translate(-268.069 -99.415)" fill="#cb4f29"/>
    <path id="Trazado_19556" data-name="Trazado 19556" d="M1210.067,742.209h-.3a1.216,1.216,0,0,0,0,2.431h.3a1.216,1.216,0,1,0,0-2.431Z" transform="translate(-268.069 -124.046)" fill="#cb4f29"/>
    <path id="Trazado_19557" data-name="Trazado 19557" d="M1249.6,683.417h-8.5a1.216,1.216,0,1,0,0,2.431h8.5a1.216,1.216,0,0,0,0-2.431Z" transform="translate(-294.319 -74.783)" fill="#cb4f29"/>
    <path id="Trazado_19558" data-name="Trazado 19558" d="M1249.6,712.814h-8.5a1.216,1.216,0,1,0,0,2.431h8.5a1.216,1.216,0,0,0,0-2.431Z" transform="translate(-294.319 -99.415)" fill="#cb4f29"/>
    <path id="Trazado_19559" data-name="Trazado 19559" d="M1249.6,742.209h-8.5a1.216,1.216,0,1,0,0,2.431h8.5a1.216,1.216,0,0,0,0-2.431Z" transform="translate(-294.319 -124.046)" fill="#cb4f29"/>
    <path id="Trazado_19560" data-name="Trazado 19560" d="M1210.067,996.016h-.3a1.216,1.216,0,0,0,0,2.431h.3a1.216,1.216,0,1,0,0-2.431Z" transform="translate(-268.069 -336.718)" fill="#cb4f29"/>
    <path id="Trazado_19561" data-name="Trazado 19561" d="M1210.067,1025.413h-.3a1.216,1.216,0,0,0,0,2.431h.3a1.216,1.216,0,1,0,0-2.431Z" transform="translate(-268.069 -361.35)" fill="#cb4f29"/>
    <path id="Trazado_19562" data-name="Trazado 19562" d="M1210.067,1054.809h-.3a1.216,1.216,0,0,0,0,2.431h.3a1.216,1.216,0,1,0,0-2.431Z" transform="translate(-268.069 -385.982)" fill="#cb4f29"/>
    <path id="Trazado_19563" data-name="Trazado 19563" d="M1249.6,996.016h-8.5a1.216,1.216,0,1,0,0,2.431h8.5a1.216,1.216,0,0,0,0-2.431Z" transform="translate(-294.319 -336.718)" fill="#cb4f29"/>
    <path id="Trazado_19564" data-name="Trazado 19564" d="M1249.6,1025.413h-8.5a1.216,1.216,0,1,0,0,2.431h8.5a1.216,1.216,0,0,0,0-2.431Z" transform="translate(-294.319 -361.35)" fill="#cb4f29"/>
    <path id="Trazado_19565" data-name="Trazado 19565" d="M1249.6,1054.809h-8.5a1.216,1.216,0,1,0,0,2.431h8.5a1.216,1.216,0,0,0,0-2.431Z" transform="translate(-294.319 -385.982)" fill="#cb4f29"/>
    <path id="Trazado_19566" data-name="Trazado 19566" d="M888.637,935.865a3.226,3.226,0,0,0,3.223,3.223h19.385a3.226,3.226,0,0,0,3.223-3.223V917.374a1.221,1.221,0,0,0-.356-.86l-9.387-9.387a1.227,1.227,0,0,0-.86-.356H891.86a3.226,3.226,0,0,0-3.223,3.223Zm16.444-24.944,5.237,5.237h-4.445a.793.793,0,0,1-.792-.792v-4.445Zm-14.013-.927a.793.793,0,0,1,.792-.792h10.79v6.164a3.227,3.227,0,0,0,3.223,3.223h6.164v17.276a.793.793,0,0,1-.792.792H891.86a.793.793,0,0,1-.792-.792Z" transform="translate(0 -261.937)" fill="#cb4f29"/>
    <path id="Trazado_19567" data-name="Trazado 19567" d="M920.151,998.447h.3a1.216,1.216,0,1,0,0-2.431h-.3a1.216,1.216,0,0,0,0,2.431Z" transform="translate(-25.387 -336.718)" fill="#cb4f29"/>
    <path id="Trazado_19568" data-name="Trazado 19568" d="M920.151,1027.844h.3a1.216,1.216,0,1,0,0-2.431h-.3a1.216,1.216,0,1,0,0,2.431Z" transform="translate(-25.387 -361.35)" fill="#cb4f29"/>
    <path id="Trazado_19569" data-name="Trazado 19569" d="M920.151,1057.24h.3a1.216,1.216,0,1,0,0-2.431h-.3a1.216,1.216,0,1,0,0,2.431Z" transform="translate(-25.387 -385.982)" fill="#cb4f29"/>
    <path id="Trazado_19570" data-name="Trazado 19570" d="M951.478,998.447h8.5a1.216,1.216,0,0,0,0-2.431h-8.5a1.216,1.216,0,0,0,0,2.431Z" transform="translate(-51.637 -336.718)" fill="#cb4f29"/>
    <path id="Trazado_19571" data-name="Trazado 19571" d="M951.478,1027.844h8.5a1.216,1.216,0,1,0,0-2.431h-8.5a1.216,1.216,0,1,0,0,2.431Z" transform="translate(-51.637 -361.35)" fill="#cb4f29"/>
    <path id="Trazado_19572" data-name="Trazado 19572" d="M951.478,1057.24h8.5a1.216,1.216,0,1,0,0-2.431h-8.5a1.216,1.216,0,1,0,0,2.431Z" transform="translate(-51.637 -385.982)" fill="#cb4f29"/>
    <path id="Trazado_19573" data-name="Trazado 19573" d="M1230.96,806.62a1.215,1.215,0,0,0-1.216,1.216v3.9h-2.388a1.873,1.873,0,0,0-1.543,2.931l3.6,5.249a1.872,1.872,0,0,0,3.086,0h0l3.6-5.25a1.873,1.873,0,0,0-1.543-2.931h-2.388v-3.9a1.216,1.216,0,0,0-1.216-1.216Zm2.541,7.543-2.542,3.7-2.541-3.7Z" transform="translate(-282.252 -178.018)" fill="#cb4f29"/>
    <path id="Trazado_19574" data-name="Trazado 19574" d="M1077.676,670.7l5.249-3.6a1.873,1.873,0,0,0,0-3.086l-5.249-3.6a1.873,1.873,0,0,0-2.931,1.543v2.388h-3.892a1.216,1.216,0,1,0,0,2.431h3.892v2.388A1.873,1.873,0,0,0,1077.676,670.7Zm-.5-7.688,3.7,2.541-3.7,2.541Z" transform="translate(-151.665 -55.221)" fill="#cb4f29"/>
    <path id="Trazado_19575" data-name="Trazado 19575" d="M1070.453,979.692l5.249,3.6a1.872,1.872,0,0,0,2.931-1.543v-2.388h3.892a1.216,1.216,0,0,0,0-2.431h-3.892v-2.388A1.873,1.873,0,0,0,1075.7,973l-5.249,3.6h0a1.873,1.873,0,0,0,0,3.086Zm5.749-4.084v5.082l-3.7-2.541Z" transform="translate(-151.669 -317.157)" fill="#cb4f29"/>
    <path id="Trazado_19576" data-name="Trazado 19576" d="M1178.258,935.865a3.227,3.227,0,0,0,3.223,3.223h19.385a3.227,3.227,0,0,0,3.223-3.223v-5.814a1.216,1.216,0,1,0-2.431,0v5.814a.793.793,0,0,1-.792.792h-19.385a.793.793,0,0,1-.792-.792V909.994a.793.793,0,0,1,.792-.792h10.79v6.164a3.226,3.226,0,0,0,3.223,3.223h6.164v5.79a1.216,1.216,0,1,0,2.431,0v-7.005a1.232,1.232,0,0,0-.356-.86l-9.387-9.387a1.227,1.227,0,0,0-.86-.356h-12.005a3.226,3.226,0,0,0-3.223,3.223Zm16.444-24.944,5.237,5.237h-4.445a.793.793,0,0,1-.792-.792v-4.445Z" transform="translate(-242.681 -261.937)" fill="#cb4f29"/>
  </g>
</svg>
