<svg xmlns="http://www.w3.org/2000/svg" width="71" height="70.988" viewBox="0 0 71 70.988">
  <g id="Grupo_7993" data-name="Grupo 7993" transform="translate(-1502.65 -672.074)">
    <path id="Trazado_19595" data-name="Trazado 19595" d="M1737.157,770.667a3.551,3.551,0,0,0-6.507-.852l-.592,1.03a1.183,1.183,0,0,0-1.609.426l-3.005,5.122-1.029-.592a1.182,1.182,0,1,0-1.183,2.047l1.029.592L1714.2,795.868l-2.485,6.638-1.183,2.212a3.55,3.55,0,0,0,.19,3.834l-2.662,3.265-.745-1.869a2.366,2.366,0,0,0-4.224-.331l-.426.722-.4-4.733a2.366,2.366,0,0,0-4.6-.556l-2.91,8.731a1.183,1.183,0,0,0,.745,1.491,1.027,1.027,0,0,0,.367.094,1.183,1.183,0,0,0,1.124-.8l2.9-8.731.414,4.8a2.366,2.366,0,0,0,4.389,1.018l.438-.722.734,1.858a2.366,2.366,0,0,0,4.046.6l2.757-3.49a3.643,3.643,0,0,0,.935.119,3.55,3.55,0,0,0,3.088-1.752l1.183-1.976,4.508-5.478,10.163-17.641,1.03.592a1.186,1.186,0,0,1,.438,1.621l-4.732,8.2a1.175,1.175,0,1,0,2,1.23l4.732-8.2a3.548,3.548,0,0,0-1.3-4.851l-1.029-.592,2.958-5.123a1.184,1.184,0,0,0-.426-1.609l.592-1.03A3.547,3.547,0,0,0,1737.157,770.667Zm-4.46.331a1.182,1.182,0,0,1,.722-.556,1.242,1.242,0,0,1,.9.118,1.185,1.185,0,0,1,.556.722,1.242,1.242,0,0,1-.119.9l-.592,1.029-2.059-1.183Zm-16.126,33.033-.592-.343-1.751-1.018,1.68-4.5,3.727,2.153Zm-3.549,3.419a1.182,1.182,0,0,1-.355-1.55l.591-1.029,2.058,1.183-.591,1.017a1.182,1.182,0,0,1-1.7.378Zm7.962-9.062-4.094-2.366,9.465-16.4,4.094,2.366Zm10.648-18.445-4.094-2.366,2.366-4.094,4.094,2.366Z" transform="translate(-163.638 -81.769)" fill="#cb4f29"/>
    <path id="Trazado_19596" data-name="Trazado 19596" d="M1578.666,1028.854l-4.188,4.177-2.509-2.509a1.184,1.184,0,1,0-1.668,1.68l2.508,2.508a2.385,2.385,0,0,0,3.348,0l4.176-4.188a1.183,1.183,0,0,0-1.668-1.668Z" transform="translate(-57.346 -303.764)" fill="#cb4f29"/>
    <path id="Trazado_19597" data-name="Trazado 19597" d="M1534.645,994.079a10.057,10.057,0,0,0,20.113,0,1.183,1.183,0,1,0-2.366,0,7.691,7.691,0,1,1-3.076-6.152,1.183,1.183,0,0,0,1.42-1.893,10.056,10.056,0,0,0-16.091,8.045Z" transform="translate(-27.262 -265.806)" fill="#cb4f29"/>
    <path id="Trazado_19598" data-name="Trazado 19598" d="M1606.583,722.432a1.183,1.183,0,1,0,0-2.366h-30.761a1.183,1.183,0,0,0-1.183,1.183v4.733a1.183,1.183,0,0,0,1.183,1.183h30.761a1.183,1.183,0,1,0,0-2.366H1577v-2.366Z" transform="translate(-61.34 -40.893)" fill="#cb4f29"/>
    <path id="Trazado_19599" data-name="Trazado 19599" d="M1599.817,784.055a1.183,1.183,0,1,0,0,2.366h23.662a1.183,1.183,0,1,0,0-2.366Z" transform="translate(-81.786 -95.417)" fill="#cb4f29"/>
    <path id="Trazado_19600" data-name="Trazado 19600" d="M1657.841,840.045h-26.029a1.183,1.183,0,1,0,0,2.366h26.029a1.183,1.183,0,1,0,0-2.366Z" transform="translate(-109.049 -143.125)" fill="#cb4f29"/>
    <path id="Trazado_19601" data-name="Trazado 19601" d="M1584.67,889.22a1.183,1.183,0,0,0-1.183-1.183h-23.663a1.183,1.183,0,1,0,0,2.366h23.663A1.183,1.183,0,0,0,1584.67,889.22Z" transform="translate(-47.709 -184.019)" fill="#cb4f29"/>
    <path id="Trazado_19602" data-name="Trazado 19602" d="M1760.073,888.037h-8.282a1.183,1.183,0,1,0,0,2.366h8.282a1.183,1.183,0,1,0,0-2.366Z" transform="translate(-211.281 -184.019)" fill="#cb4f29"/>
    <path id="Trazado_19603" data-name="Trazado 19603" d="M1571.656,930.4a1.183,1.183,0,0,0,0-2.366h-11.831a1.183,1.183,0,1,0,0,2.366Z" transform="translate(-47.709 -218.096)" fill="#cb4f29"/>
    <path id="Trazado_19604" data-name="Trazado 19604" d="M1671.805,930.4h8.282a1.183,1.183,0,0,0,0-2.366h-8.282a1.183,1.183,0,1,0,0,2.366Z" transform="translate(-143.126 -218.096)" fill="#cb4f29"/>
    <path id="Trazado_19605" data-name="Trazado 19605" d="M1555.891,726.5a1.183,1.183,0,0,0-1.183,1.183v11.831a1.183,1.183,0,0,1-1.183,1.183H1506.2a1.183,1.183,0,0,1-1.183-1.183V675.623a1.183,1.183,0,0,1,1.183-1.183h47.325a1.183,1.183,0,0,1,1.183,1.183v22.219a1.183,1.183,0,1,0,2.366,0V675.623a3.55,3.55,0,0,0-3.549-3.549H1506.2a3.55,3.55,0,0,0-3.549,3.549v63.889a3.549,3.549,0,0,0,3.549,3.549h47.325a3.549,3.549,0,0,0,3.549-3.549V727.681A1.183,1.183,0,0,0,1555.891,726.5Z" fill="#cb4f29"/>
  </g>
</svg>
