<svg xmlns="http://www.w3.org/2000/svg" width="74" height="55.426" viewBox="0 0 74 55.426">
  <g id="Grupo_7985" data-name="Grupo 7985" transform="translate(-166.802 -502.979)">
    <path id="Trazado_19538" data-name="Trazado 19538" d="M490.528,646.99c0,.322.016.609,0,.893a.894.894,0,0,1-.922.908q-1.841.031-3.683,0a.893.893,0,0,1-.923-.906c-.019-.284,0-.571,0-.9Z" transform="translate(-269.122 -121.805)" fill="#cb4f29"/>
    <path id="Trazado_19539" data-name="Trazado 19539" d="M475.043,611.007v1.775h-1.784v-1.775Z" transform="translate(-259.202 -91.37)" fill="#cb4f29"/>
    <path id="Trazado_19540" data-name="Trazado 19540" d="M521.114,610.96H522.9v1.795h-1.785Z" transform="translate(-299.677 -91.331)" fill="#cb4f29"/>
    <g id="Grupo_7984" data-name="Grupo 7984" transform="translate(166.802 505.652)">
      <path id="Trazado_19541" data-name="Trazado 19541" d="M298.749,644.812v-1.85c.709,0,1.428,0,2.147,0,.664,0,1.367.131,1.756-.661l1.278,1.324c-.547.653-1.062,1.3-2.124,1.206C300.8,644.74,299.787,644.812,298.749,644.812Z" transform="translate(-278.403 -623.492)" fill="#cb4f29"/>
      <path id="Trazado_19542" data-name="Trazado 19542" d="M282.773,611.007v1.775h-1.784v-1.775Z" transform="translate(-263.382 -597.023)" fill="#cb4f29"/>
      <path id="Trazado_19543" data-name="Trazado 19543" d="M328.844,610.96h1.785v1.795h-1.785Z" transform="translate(-303.857 -596.983)" fill="#cb4f29"/>
      <path id="Trazado_19544" data-name="Trazado 19544" d="M211.119,559.293a8.209,8.209,0,0,0-5.841-7.867c-2.035-.629-4.1-1.162-6.152-1.735-1.532-.428-3.063-.852-4.57-1.271-.069-.99-.016-3.6.686-4.121a7.382,7.382,0,0,0,2.706-4.248c.168-.665.231-1.356.346-2.063.049-.008.122-.021.194-.03a3.685,3.685,0,0,0,3.42-3.664,3.709,3.709,0,0,0-2.028-3.277,1.441,1.441,0,0,0,.166-.759q0-.808,0-1.615a8.305,8.305,0,0,0-8.288-8.305c-1.884-.018-3.771-.043-5.654.017a9.633,9.633,0,0,0-2.487.411,8.3,8.3,0,0,0-5.737,8.468c.039.954.292,1.248,1.228,1.26.187,0,.375,0,.591,0l-.008.09a3.843,3.843,0,0,0-2.81,1.413,3.626,3.626,0,0,0,0,4.581,3.842,3.842,0,0,0,2.81,1.413c.033.059.049.075.051.092.008.1.012.192.019.288a7.968,7.968,0,0,0,3,5.943c.683.54.736,3.119.658,4.1l-10.246,2.854a8.313,8.313,0,0,0-6.369,8.347c0,4.673,0,7.448,0,12.121,0,1.064.265,1.333,1.321,1.333l17.713,0,24.059,0c.893,0,1.23-.305,1.231-1.134C211.129,567.087,211.148,564.139,211.119,559.293Zm-31.4-23.248a1.759,1.759,0,0,1-.024-3.517S179.716,535.154,179.716,536.045Zm18.521-3.51h.047a1.611,1.611,0,0,1,1.734,1.759,1.691,1.691,0,0,1-1.772,1.8v-1.8h-.009Zm-6.018-8.579a5.936,5.936,0,0,0,.411-1.6c2.846-.39,6,3.652,5.514,7.126a6.932,6.932,0,0,1-3.469-1.226,13.336,13.336,0,0,1-1.865-1.613C192.068,525.89,191.558,525.081,192.219,523.956Zm-12.465,4.688a5.438,5.438,0,0,1,.529-2.577,6.3,6.3,0,0,1,5.8-3.872c1.533-.062,3.069-.011,4.657-.011a7.391,7.391,0,0,1-7.358,6.458C182.192,528.649,181,528.644,179.754,528.644Zm1.854,9.4c-.011-1.536,0-3.073,0-4.674V530.49a13.274,13.274,0,0,0,5.011-.567,9.676,9.676,0,0,0,4.062-2.942c.407.476.759.929,1.153,1.341a9.329,9.329,0,0,0,3.892,2.485c.435.141.626.331.645.67h0v2.436h-.015a45.033,45.033,0,0,1-.116,5.136,6.265,6.265,0,0,1-6.083,5.366,11.015,11.015,0,0,1-4.439-.432A6.491,6.491,0,0,1,181.608,538.047Zm4.728,10.758c-.141-.15-1.035-.767-1.035-1.161,0-.76,0-1.707,0-1.793a22.305,22.305,0,0,0,3.106.422h1.164a23.417,23.417,0,0,0,3.116-.413v1.785h0c0,.394-.967,1.131-1.293,1.44-.805.764-1.574,1.566-2.4,2.4C188.078,550.575,187.187,549.709,186.336,548.8Zm.852,3.446a4.1,4.1,0,0,1-2.99,2.036l-.637-3.89c.932-.532,1.236-.494,1.949.212C186.069,551.164,186.635,551.711,187.188,552.251Zm5.665-1.986a1.488,1.488,0,0,1,.878-.144,2.833,2.833,0,0,1,.686.188l-.632,3.955c-1.4-.047-2.174-1-3.04-1.951C191.474,551.594,192.132,550.893,192.853,550.265Zm-17.77,20.929H168.7V567.6h6.388Zm34.17-.005h-6.391v-3.568h6.391Zm.027-5.9v.419H202.84v-1.781h-1.856v7.257H176.95v-7.267h-1.817V565.7h-6.482v-.531q0-2.8,0-5.6a6.4,6.4,0,0,1,4.765-6.447c2.689-.792,5.4-1.513,8.1-2.263a1.207,1.207,0,0,1,.24,0c.17,1.025.342,2.058.511,3.091.087.531.161,1.064.252,1.594a.968.968,0,0,0,1.417.85c.729-.231,1.453-.475,2.259-.739v.736q0,4.04,0,8.079c0,.976.287,1.264,1.272,1.266.785,0,1.57,0,2.389,0v-1.838h-1.77v-1.836h1.763V560.2h-1.775v-1.835h1.781v-1.856h-1.8c0-.782-.046-1.528.016-2.264.043-.509,1.072-.753,1.548-.4a.529.529,0,0,1,.123.121c1.076,1.538,2.773,1.964,4.424,2.466a.919.919,0,0,0,1.275-.843c.236-1.4.458-2.806.687-4.21.027-.167.066-.332.114-.572,1.009.284,1.98.56,2.953.831,1.813.5,3.634.979,5.437,1.516a6.426,6.426,0,0,1,4.649,6.188C209.294,561.321,209.281,563.3,209.281,565.284Z" transform="translate(-166.802 -520.317)" fill="#cb4f29"/>
    </g>
    <path id="Trazado_19545" data-name="Trazado 19545" d="M427.4,542.941a8.4,8.4,0,0,0-6.176-8.207c-1-.3-2.021-.571-2.9-.817a8.008,8.008,0,0,0-.472-1.455,1.748,1.748,0,0,0-1.657-.853c-1.784.009-3.568,0-5.369,0a1.824,1.824,0,0,1,.67-1.977,7.381,7.381,0,0,0,2.706-4.248c.168-.665.231-1.356.346-2.063.049-.008.121-.021.194-.03a3.7,3.7,0,0,0,3.429-3.863c0-.635.009-1.27,0-1.9-.037-2.475.311-1.638-1.4-3.385a1.5,1.5,0,0,1-.459-1.1,8.153,8.153,0,0,0-3.944-6.966,8.475,8.475,0,0,0-4.357-1.26c0-.317.014-.6,0-.885a.906.906,0,0,0-.958-.937q-1.818-.023-3.635,0a.9.9,0,0,0-.938.954c-.014.282,0,.564,0,.84a2.29,2.29,0,0,1-.23.044,8.119,8.119,0,0,0-7.973,7.369,4.245,4.245,0,0,1-1.483,2.908,1.651,1.651,0,0,0-.449,1.051c-.057,1.151-.026,2.307-.021,3.461a3.6,3.6,0,0,0,.815,2.291,3.842,3.842,0,0,0,2.81,1.413c.033.059.049.075.051.092.008.1.012.192.019.288a7.967,7.967,0,0,0,3,5.943,1.816,1.816,0,0,1,.638,1.963c-1.818,0-3.6-.005-5.391,0a1.867,1.867,0,0,0-1.914,1.506,6.816,6.816,0,0,0-.057.769c-.968.273-1.926.545-2.884.812a9.549,9.549,0,0,0-1.98.793c1,.273,2,.545,2.992.832.6-.17,1.22-.331,1.861-.508.014.207.035.368.035.53q0,.281,0,.563a8.391,8.391,0,0,1,1.817.932c.012-1.228.03-2.456.03-3.684v-.671h1.816v6.078a8.256,8.256,0,0,1,1.745,5.064c.023,3.747.016,6.359.01,9.591a1.757,1.757,0,0,0,.125-.742q0-9.634,0-19.268c0-.227,0-.454,0-.716H399.7v.644q0,9.605,0,19.21c0,1.093.259,1.348,1.364,1.348q4.24,0,8.48,0c.939,0,1.236-.3,1.236-1.245q0-9.605,0-19.21V533.5h1.847v.656q0,9.605,0,19.21c0,1.058.269,1.325,1.329,1.326h5.106v1.819H397.73c0,.247,0,.5,0,.754,0,.728-.261,1.052-.93,1.12h29.374c.934,0,1.23-.3,1.23-1.252Q427.406,550.039,427.4,542.941Zm-12.9-21.514V518.72h1.761C416.532,520.328,415.884,521.341,414.5,521.427Zm-18.529-.047c-1.2.121-1.881-.865-1.782-2.671h1.782Zm-1.915-4.568c.155-.308.213-.612.4-.757a4.046,4.046,0,0,0,1.635-3.5,5.781,5.781,0,0,1,2.667-4.7v2.473h1.858V506.91l1.863-.273a36.116,36.116,0,0,0,.031,3.875,2.581,2.581,0,0,1-1.2,2.471,1.109,1.109,0,0,1-.579.154c-.321.024-.644.006-1,.006v1.813c1.122.038,2.15.176,3.138-.821a4.313,4.313,0,0,0,1.48-3.624c-.134-1.854-.032-3.725-.032-5.653h1.847v.919c0,2.058-.023,4.116.021,6.172a2.04,2.04,0,0,0,.458,1.109c.376.481.877.862,1.285,1.322A1.641,1.641,0,0,0,409.4,515c.435-.04.877-.008,1.35-.008v-1.847a3.973,3.973,0,0,0-.582,0,1.643,1.643,0,0,1-1.456-.583,2.088,2.088,0,0,1-.712-1.758c.054-1.358.015-2.72.015-4.169l1.834.266v3.431h1.837v-2.362c1.428.467,2.878,3.188,2.755,5.138l-.912.067v1.849c1.227-.359,2.006.313,2.678,1.172a1.754,1.754,0,0,1,.159.613Zm14.855,36.006h-7.315V537.7l.113-.119c.541.579,1.078,1.163,1.626,1.736.372.389.754.768,1.142,1.142a.946.946,0,0,0,1.548-.006c.941-.928,1.871-1.868,2.887-2.886Zm.022-18.112a.558.558,0,0,1-.142.353c-1.158,1.176-2.324,2.342-3.545,3.568a30.328,30.328,0,0,0-2.35-2.331,3.282,3.282,0,0,1-1.358-3.277,12.732,12.732,0,0,0,.015-1.834,16.018,16.018,0,0,0,7.386.009C408.936,532.372,408.94,533.539,408.93,534.707Zm-2.522-4.955a11.017,11.017,0,0,1-4.439-.432,6.491,6.491,0,0,1-4.11-5.937c-.011-1.536,0-3.073,0-4.674h14.68c.029.038.071.068.071.1a54.218,54.218,0,0,1-.118,5.58A6.265,6.265,0,0,1,406.408,529.751Zm12.685,23.059h-4.588V533.486h1.816v.608c0,3.671.008,7.343-.009,11.014a1.6,1.6,0,0,0,.533,1.27c.672.632,1.317,1.292,1.957,1.957a.9.9,0,0,1,.279.524C419.1,550.163,419.094,551.467,419.094,552.81Zm6.461,3.27v.448h-4.614v-.607c0-2.461-.008-4.922.007-7.383a1.5,1.5,0,0,0-.483-1.176c-.68-.651-1.343-1.322-2-2a.9.9,0,0,1-.284-.522c-.017-2.978-.013-5.957-.013-9.028,1.82.53,3.684.766,5.143,2.067a6.5,6.5,0,0,1,2.193,4.129,5.824,5.824,0,0,1,.048.747Q425.558,549.418,425.555,556.08Z" transform="translate(-186.604 0)" fill="#cb4f29"/>
  </g>
</svg>
