<svg xmlns="http://www.w3.org/2000/svg" width="73.114" height="76.399" viewBox="0 0 73.114 76.399">
  <g id="Grupo_7992" data-name="Grupo 7992" transform="translate(-1497.953 -84.599)">
    <g id="Grupo_7990" data-name="Grupo 7990" transform="translate(1497.953 110.5)">
      <path id="Trazado_19588" data-name="Trazado 19588" d="M1513.89,295.011a.872.872,0,0,0-.468-1.134,7.441,7.441,0,0,1-3.684-6.457c-.008-.261,0-.523,0-.817a3.412,3.412,0,0,1-3.312-2.85,3.329,3.329,0,0,1,1.539-3.43,43.981,43.981,0,0,1,.328-5.535,7.377,7.377,0,0,1,7.229-5.893c1.1-.01,2.21-.017,3.307.071a3.943,3.943,0,0,1,2.456,1.3,1.147,1.147,0,0,0,.661.291c.678.062,1.374,0,2.041.11a4.108,4.108,0,0,1,3.417,3.97q.047,2.129-.005,4.259a3.07,3.07,0,0,1-.348.929c2.1.752,3.054,1.952,2.875,3.7a3.436,3.436,0,0,1-3.311,3.054c-.042.619-.046,1.248-.133,1.865a7.32,7.32,0,0,1-3.574,5.425c-.433.267-.672.517-.493,1.078a2.363,2.363,0,0,0,1.448.1,2.866,2.866,0,0,1,1.684.115,25.359,25.359,0,0,1,3.4,1.388,20.388,20.388,0,0,0,3.709,1.253,7.587,7.587,0,0,1,5.7,7.537q.01,6.443,0,12.885c0,.895-.263,1.159-1.156,1.159H1499.12c-.9,0-1.167-.26-1.167-1.146q0-6.442,0-12.885a7.579,7.579,0,0,1,5.74-7.555c.3-.086.6-.181.91-.255,2.106-.5,3.974-1.612,5.99-2.346a3.27,3.27,0,0,1,2.193-.069A2.839,2.839,0,0,0,1513.89,295.011Zm-2.426-16.022a1.476,1.476,0,0,0-.038.211c0,2.839-.069,5.681.029,8.517a5.612,5.612,0,0,0,3.226,4.945,8.246,8.246,0,0,0,4.1.635,5.905,5.905,0,0,0,6.1-6.1c.006-2.278,0-4.557,0-6.835v-.519a4.406,4.406,0,0,1-3.693-2.15,4.545,4.545,0,0,1-3.445,1.3C1515.666,278.965,1513.581,278.988,1511.464,278.988Zm5.849,38.689c0-.823.035-1.611-.013-2.392a4.56,4.56,0,0,0-.3-1.46c-1.237-2.952-2.459-5.912-3.791-8.821a14.936,14.936,0,0,1-1.279-4.993c-.1-1.092-.285-2.176-.442-3.341l-3.433,1.4c0,.185,0,.359,0,.533,0,2.715-.085,5.435.031,8.145a3.67,3.67,0,0,1-1.424,3.469.94.94,0,0,0-.278.671c-.022,2.12-.014,4.24-.015,6.36,0,.135,0,.27,0,.43Zm3.367-6.857-.1-.007a25.913,25.913,0,0,1-1.086,2.5c-.786,1.407-.387,2.893-.5,4.353h10.945c0-1.963-.057-3.891.023-5.814a2.452,2.452,0,0,0-.994-2.346,1.887,1.887,0,0,1-.731-1.741c.035-3.084.018-6.168.006-9.252,0-.175-.082-.452-.2-.506-1.02-.455-2.058-.87-3.115-1.307a2.063,2.063,0,0,0-.112.326c-.155,1.039-.327,2.075-.45,3.118a12.885,12.885,0,0,1-1.052,4.354c-.684,1.377-1.232,2.821-1.838,4.236-.071.167-.132.338-.215.55,2.037,0,4,0,5.959,0,.725,0,1.031.3,1.036,1.014q.01,1.524,0,3.049c-.006.68-.316.984-1.009.986q-2.786.009-5.572,0c-.683,0-.983-.312-.989-1.005C1520.675,312.494,1520.68,311.657,1520.68,310.82Zm9.258-12.064v.7c0,2.279.079,4.562-.027,6.836a3.305,3.305,0,0,0,1.272,3.09,1.427,1.427,0,0,1,.419,1c.037,2.243.019,4.488.019,6.732v.55h5.04c0-4.32.075-8.6-.03-12.872a5.4,5.4,0,0,0-3.411-4.972A29.758,29.758,0,0,0,1529.938,298.756Zm-23.566.047c-.751.208-1.44.4-2.13.588a5.908,5.908,0,0,0-4.6,6q0,5.864,0,11.729v.552h5.047v-.541c0-1.736.085-3.477-.03-5.205a3.653,3.653,0,0,1,1.47-3.606.675.675,0,0,0,.232-.484C1506.376,304.859,1506.372,301.88,1506.372,298.8Zm3.411-21.439c.455-.021.907-.059,1.36-.06,2.331-.005,4.662.01,6.993,0a2.507,2.507,0,0,0,2.541-2.534c.01-.578.015-1.157,0-1.735a2.5,2.5,0,0,0-2.46-2.451c-.928-.022-1.858-.026-2.786,0A5.933,5.933,0,0,0,1509.783,277.364Zm15.946.722c0-.986,0-1.981,0-2.976,0-2.018-1.29-3.106-3.364-2.8,0,.987,0,1.982,0,2.977C1522.367,277.311,1523.65,278.4,1525.73,278.086Zm-7.465,25.31h-.174a2.413,2.413,0,0,0-.121.371c-.221,1.38-.442,2.761-.648,4.144a5.248,5.248,0,0,0-.18,1.806,15.689,15.689,0,0,0,1.008,2.474c.314-.721.554-1.331.842-1.918a2.107,2.107,0,0,0,.161-1.367c-.215-1.2-.387-2.416-.578-3.624C1518.475,304.652,1518.369,304.024,1518.265,303.4Zm-2.652-8.5c.035.184,0,.484.134.626.775.826,1.59,1.615,2.431,2.456.745-.75,1.444-1.48,2.175-2.176a.843.843,0,0,0,.3-.906Zm-2.373,2.064.558,3.559c1.323-.058,1.977-.982,2.765-1.81-.542-.53-1.044-1.016-1.54-1.507C1514.35,296.538,1514.232,296.517,1513.24,296.964Zm6.552,1.753a3.7,3.7,0,0,0,2.773,1.785c.168-1.184.337-2.372.511-3.6-.5-.066-.927-.5-1.4-.039C1521.054,297.469,1520.435,298.084,1519.792,298.717Zm2.6,12.276v1.626h4.137v-1.626Zm-6.664-4.453.1-.015c.157-1,.31-2,.472-3a1.643,1.643,0,0,0-.842-1.606.308.308,0,0,0-.2-.015c-.44.14-.876.289-1.331.441Zm4.752-.023.094.017,1.808-4.208c-.343-.114-.637-.213-.933-.309a1.242,1.242,0,0,0-1.494,1.239C1520.122,304.344,1520.307,305.43,1520.483,306.516Zm-10.762-24.974a1.663,1.663,0,0,0-1.664,1.75,1.621,1.621,0,0,0,1.664,1.535Zm16.874,3.309a1.662,1.662,0,0,0,1.659-1.69,1.623,1.623,0,0,0-1.659-1.6Zm-7.16,16.006c-.964-1.33-1.895-.984-2.532.061C1517.75,302.1,1518.688,301.977,1519.436,300.857Z" transform="translate(-1497.953 -268.888)" fill="#cb4f29"/>
      <path id="Trazado_19589" data-name="Trazado 19589" d="M1623.912,404.642v-1.686c.967,0,1.91-.016,2.851.006.606.014,1.2.051,1.552-.6l1.176,1.179a2.212,2.212,0,0,1-2.029,1.124C1626.3,404.57,1625.12,404.642,1623.912,404.642Z" transform="translate(-1606.209 -383.602)" fill="#cb4f29"/>
      <path id="Trazado_19590" data-name="Trazado 19590" d="M1613.569,360.633h-1.62v-1.621h1.62Z" transform="translate(-1595.927 -346.345)" fill="#cb4f29"/>
      <path id="Trazado_19591" data-name="Trazado 19591" d="M1661.469,360.619h-1.62V359h1.62Z" transform="translate(-1637.095 -346.336)" fill="#cb4f29"/>
    </g>
    <g id="Grupo_7991" data-name="Grupo 7991" transform="translate(1530.658 84.599)">
      <path id="Trazado_19592" data-name="Trazado 19592" d="M1759.352,102.336c-.093.839-.116,1.686-.29,2.5a7.29,7.29,0,0,1-3.467,4.8c-.552.342-.557.334-.493,1.049q3.8,1.056,7.618,2.117c1.029.286,2.065.549,3.081.875a7.508,7.508,0,0,1,5.243,7.078c.034,4.453.012,8.907.009,13.36,0,.718-.321,1-1.1,1l-21.934,0-16.148,0c-.971,0-1.215-.243-1.215-1.2q0-6.365,0-12.729a7.577,7.577,0,0,1,5.8-7.666q5.077-1.423,10.149-2.831a.834.834,0,0,0-.469-1.063,7.4,7.4,0,0,1-3.7-6.444c-.007-.245,0-.491-.006-.736a.577.577,0,0,0-.041-.129,3.478,3.478,0,0,1-2.577-1.287,3.342,3.342,0,0,1-.74-2.247c.05-1.727,1.3-2.953,3.335-3.258V93.965c-1.033-.28-1.377-.08-1.683.959a.8.8,0,0,1-.859.63.725.725,0,0,1-.763-.67c-.034-1.989-.263-4.009.682-5.885a7.363,7.363,0,0,1,6.782-4.361c2.856-.069,5.716-.031,8.573-.011a7.562,7.562,0,0,1,7.491,7.419c.027,1.4.026,2.806-.011,4.208a4.182,4.182,0,0,1-.361,1.08A3.412,3.412,0,0,1,1759.352,102.336Zm-14.113,31.078c-.1-.193-.167-.347-.249-.5q-1.974-3.588-3.951-7.175c-.426-.774-.4-.96.238-1.6.691-.69,1.385-1.378,2.127-2.115-.426-.146-.769-.259-1.109-.381a.869.869,0,0,1-.657-1.133c.283-1.425.573-2.847.857-4.272.182-.915.359-1.83.541-2.757a1.05,1.05,0,0,0-.182,0c-1.972.545-3.943,1.1-5.917,1.636a5.916,5.916,0,0,0-4.6,6q0,5.861,0,11.723v.559h5.891v-6.674h1.705v6.676Zm16.577,0V126.73h1.671V133.4h5.866c.007-.126.015-.212.015-.3,0-4.1.019-8.2-.005-12.3a5.828,5.828,0,0,0-4.208-5.552c-1.643-.49-3.3-.922-4.954-1.381-.494-.137-.986-.278-1.544-.435.482,2.416.944,4.73,1.406,7.044a.88.88,0,0,1-.651,1.182c-.339.124-.682.236-1.109.383.757.748,1.467,1.445,2.172,2.147.58.578.613.814.224,1.52q-1.989,3.611-3.978,7.222c-.081.148-.152.3-.248.492ZM1740.765,92.2h1.92c1.875,0,3.75.008,5.625,0a5.91,5.91,0,0,0,5.909-5.859c-.12-.013-.188-.027-.255-.027-2.506,0-5.012-.023-7.517.013a5.56,5.56,0,0,0-3.987,1.747A5.692,5.692,0,0,0,1740.765,92.2Zm3.361,9.234c0,.558-.007,1.168,0,1.779a5.9,5.9,0,0,0,3.8,5.427,9.444,9.444,0,0,0,3.994.363,5.956,5.956,0,0,0,2.127-.488c3.027-1.368,3.845-4.036,3.5-7.069h-3.469a2.74,2.74,0,0,1,1.818,2.357,17.96,17.96,0,0,1,.01,1.838c-.008.463-.264.849-.708.834-1.473-.051-3.024.424-4.23-.486a8.629,8.629,0,0,1-1.644.5,24.822,24.822,0,0,1-2.626.017.831.831,0,0,1-.884-.895c-.013-.35.016-.7-.007-1.051a2.869,2.869,0,0,1,1.847-3.122Zm9.109,31.986-2.262-14.3-.236.008-2.258,14.288Zm7.717-37.891c0-1.183.02-2.335,0-3.486a5.887,5.887,0,0,0-3.912-5.391c-.349-.123-.719-.186-1.129-.289,0,.9,0,1.7,0,2.506a27.058,27.058,0,0,0,.044,2.989C1756.234,94.28,1758.25,95.747,1760.951,95.527Zm-6.742-4.282c-.687.537-1.31,1.106-2.011,1.553a7.2,7.2,0,0,1-4,1.084c-1.344-.007-2.687,0-4.042,0v1.683c1.363,0,2.693-.027,4.021.016a1.8,1.8,0,0,1,1.156.365,1.656,1.656,0,0,0,1.459.461c.28-.014.561.007.841,0,.115,0,.282-.016.334-.09a2.242,2.242,0,0,1,2.173-.751c.579.016,1.159,0,1.849,0A6.115,6.115,0,0,1,1754.209,91.245Zm-11.536,33.97,3.575,6.461.115-.034c-.32-3.036-.639-6.072-.963-9.148Zm12.676,6.421.114.046,3.562-6.448-2.717-2.708Zm-1.344-4.163.088-.024q.144-1.357.287-2.713.3-2.846.586-5.692c.033-.326-1.208-1.368-1.513-1.286a.339.339,0,0,0-.046.025,1.428,1.428,0,0,0-.717,1.414c.269,1.675.531,3.351.8,5.027Q1753.745,125.849,1754.005,127.474Zm-6.382.043a.811.811,0,0,0,.088-.175c.455-2.833.911-5.666,1.35-8.5a.655.655,0,0,0-.159-.458c-.61-.715-.616-.709-1.41-.191a2.861,2.861,0,0,1-.354.226.672.672,0,0,0-.393.8C1747.049,121.967,1747.33,124.718,1747.623,127.517Zm.687-16.881c.038.188.007.487.141.63.775.826,1.589,1.614,2.432,2.459.746-.755,1.443-1.488,2.173-2.186a.833.833,0,0,0,.3-.9Zm-1.861,6.116.156.124,2.754-2.388c-.584-.552-1.086-1.01-1.571-1.486-.751-.738-.89-.767-1.883-.294Zm5.957-2.2,2.839,2.4.6-4.312c-.517-.074-.969-.5-1.425-.076C1753.763,113.169,1753.147,113.815,1752.406,114.55Zm1.117-13.1a2.907,2.907,0,0,1-1.829-3.328h-1.548a7.44,7.44,0,0,1-.478,1.989,6.479,6.479,0,0,1-1.335,1.339Zm-.138-4.19c0,.6-.022,1.162.007,1.717a.762.762,0,0,0,.768.783c.875.032,1.752.024,2.627,0a.746.746,0,0,0,.776-.716c.045-.585.011-1.176.011-1.752h-1.69v1.6H1754.2V97.257Zm-9.258,0c0,.6-.023,1.163.007,1.718a.762.762,0,0,0,.771.781c.875.031,1.752.025,2.627,0a.746.746,0,0,0,.774-.718c.045-.586.011-1.177.011-1.769h-.833V98.9h-1.707V97.259Zm13.158,17.94-.111.008-.716,5.655,1.841-.614Zm-12.035,5.657-.706-5.6-.132,0-1,4.994Zm14.044-20.27a1.652,1.652,0,0,0,1.658-1.687,1.627,1.627,0,0,0-1.658-1.609Zm-16.883,0V97.275a1.657,1.657,0,1,0,0,3.314Zm7.594,2.557c-.61,0-1.183-.026-1.751.008a.771.771,0,0,0-.752.74,8.271,8.271,0,0,0-.006.921c.61,0,1.182.027,1.751-.009a.773.773,0,0,0,.753-.741A8.136,8.136,0,0,0,1750.006,103.145Zm4.211,1.677c0-.336.019-.613,0-.887a.763.763,0,0,0-.715-.772c-.583-.044-1.172-.011-1.8-.011,0,.237,0,.426,0,.614.008.752.3,1.048,1.039,1.055C1753.208,104.826,1753.677,104.822,1754.217,104.822Zm-2.081,11.776c-.921-1.3-1.859-1.036-2.534.05C1750.429,117.811,1751.362,117.738,1752.136,116.6Z" transform="translate(-1730.654 -84.599)" fill="#cb4f29"/>
    </g>
    <path id="Trazado_19593" data-name="Trazado 19593" d="M1499.524,141.831l2.845.152.091,0a1.655,1.655,0,0,0,1.648-1.5,12.5,12.5,0,0,1,12.86-11.317l-.123.7a1.946,1.946,0,0,0,3.008,1.947l4.459-3.021a1.946,1.946,0,0,0,.484-2.753l-3.162-4.36a1.946,1.946,0,0,0-3.491.805l-.1.57a18.732,18.732,0,0,0-3.354.036,1.058,1.058,0,0,0,.212,2.1,16.628,16.628,0,0,1,3.872.063,1.056,1.056,0,0,0,1.182-.865l.2-1.149,2.825,3.895-3.983,2.7.255-1.452a1.058,1.058,0,0,0-.914-1.233,14.621,14.621,0,0,0-16.288,12.7l-1.936-.1a16.552,16.552,0,0,1,10.4-13.492,1.058,1.058,0,1,0-.771-1.969,18.668,18.668,0,0,0-11.786,15.745,1.66,1.66,0,0,0,1.564,1.8Z" transform="translate(0 -31.178)" fill="#cb4f29"/>
    <path id="Trazado_19594" data-name="Trazado 19594" d="M1852.813,467.392a1.672,1.672,0,0,0-1.168-.572l-2.864-.153a1.658,1.658,0,0,0-1.743,1.5,12.6,12.6,0,0,1-12.5,11.408l.076-.43a1.951,1.951,0,0,0-3.017-1.953l-4.489,3.042a1.952,1.952,0,0,0-.485,2.762l3.184,4.39a1.952,1.952,0,0,0,3.5-.808l.147-.838c.347.019.694.029,1.036.029a18.79,18.79,0,0,0,18.726-17.141,1.673,1.673,0,0,0-.4-1.237Zm-8.015,12.7a16.677,16.677,0,0,1-12.108,3.466,1.058,1.058,0,0,0-1.155.868l-.248,1.408-2.858-3.941,4.03-2.731-.217,1.237a1.057,1.057,0,0,0,.949,1.236,14.712,14.712,0,0,0,15.9-12.833l1.963.1a16.757,16.757,0,0,1-6.26,11.184Z" transform="translate(-282.153 -328.368)" fill="#cb4f29"/>
  </g>
</svg>
