<svg xmlns="http://www.w3.org/2000/svg" width="70.771" height="70.771" viewBox="0 0 70.771 70.771">
  <g id="fingerprint_pass" data-name="fingerprint pass" transform="translate(-870.37 -77.447)">
    <path id="Trazado_19494" data-name="Trazado 19494" d="M946.792,502.2a25.875,25.875,0,0,1-11.441-5.791,1.211,1.211,0,0,0-1.663.118,1.136,1.136,0,0,0-.295.849,1.2,1.2,0,0,0,.4.814,28.31,28.31,0,0,0,12.491,6.31.9.9,0,0,0,.248.035,1.187,1.187,0,0,0,1.156-.932,1.753,1.753,0,0,0,.024-.259,1.179,1.179,0,0,0-.92-1.144Z" transform="translate(-53.728 -356.959)" fill="#cb4f29"/>
    <path id="Trazado_19495" data-name="Trazado 19495" d="M875.918,392.688a1.2,1.2,0,0,0-1.38-.944,1.179,1.179,0,0,0-.932,1.38,28.418,28.418,0,0,0,5.92,12.68,1.218,1.218,0,0,0,.921.425,1.154,1.154,0,0,0,.743-.271,1.179,1.179,0,0,0,.436-.908,1.13,1.13,0,0,0-.271-.743A25.983,25.983,0,0,1,875.918,392.688Z" transform="translate(-2.741 -267.942)" fill="#cb4f29"/>
    <path id="Trazado_19496" data-name="Trazado 19496" d="M1058.665,523.466a.012.012,0,0,1-.012.012l-.035.012a25.658,25.658,0,0,1-11.193,2.536q-.655,0-1.346-.035a1.163,1.163,0,0,0-1.235,1.086c0,.011,0,.023,0,.035a1.18,1.18,0,0,0,1.118,1.238h0c.506.024,1,.035,1.463.035a27.955,27.955,0,0,0,12.255-2.784,1.179,1.179,0,0,0,.672-1.062,1.311,1.311,0,0,0-.118-.519,1.2,1.2,0,0,0-1.569-.554Z" transform="translate(-148.746 -380.167)" fill="#cb4f29"/>
    <path id="Trazado_19497" data-name="Trazado 19497" d="M1034.315,79.983a26.078,26.078,0,0,1,12.716,1.7,1.147,1.147,0,0,0,.437.083,1.179,1.179,0,0,0,.448-2.265,27.928,27.928,0,0,0-10.58-2.052,27.32,27.32,0,0,0-3.279.189,1.192,1.192,0,0,0-1.05,1.156.674.674,0,0,0,.012.153A1.18,1.18,0,0,0,1034.315,79.983Z" transform="translate(-138.658 0)" fill="#cb4f29"/>
    <path id="Trazado_19498" data-name="Trazado 19498" d="M925.869,93.9a1.167,1.167,0,0,0,.837-.342,26.051,26.051,0,0,1,11.039-6.511,1.212,1.212,0,0,0,.708-.566,1.14,1.14,0,0,0,.094-.9,1.188,1.188,0,0,0-1.463-.8,28.335,28.335,0,0,0-12.042,7.1,1.182,1.182,0,0,0-.012,1.675,1.168,1.168,0,0,0,.837.342Z" transform="translate(-46.311 -6.217)" fill="#cb4f29"/>
    <path id="Trazado_19499" data-name="Trazado 19499" d="M872.765,169.1h.142a1.179,1.179,0,0,0,1.18-1.026,25.918,25.918,0,0,1,4.659-11.948,1.179,1.179,0,0,0-.271-1.64,1.207,1.207,0,0,0-1.64.271,28.274,28.274,0,0,0-5.1,13.022.676.676,0,0,0-.012.153,1.18,1.18,0,0,0,1.038,1.168Z" transform="translate(-1.157 -65.503)" fill="#cb4f29"/>
    <path id="Trazado_19500" data-name="Trazado 19500" d="M871.573,285.348a1.187,1.187,0,0,0,1.168-1.168.043.043,0,0,0-.012-.035V270.628a1.179,1.179,0,1,0-2.359,0v13.564a1.194,1.194,0,0,0,1.18,1.156Z" transform="translate(0 -163.692)" fill="#cb4f29"/>
    <path id="Trazado_19501" data-name="Trazado 19501" d="M1151.016,106.765a25.527,25.527,0,0,1,4.789,3.786,25.929,25.929,0,0,1,4.151,5.4,1.179,1.179,0,0,0,2.053-1.156c0-.012,0-.012-.012-.012a28.226,28.226,0,0,0-9.755-10.038,1.2,1.2,0,0,0-1.616.389,1.157,1.157,0,0,0-.177.613,1.2,1.2,0,0,0,.566,1.014Z" transform="translate(-238.785 -23.137)" fill="#cb4f29"/>
    <path id="Trazado_19502" data-name="Trazado 19502" d="M1226.932,199.039a25.87,25.87,0,0,1,1.616,9.035v3.9a1.18,1.18,0,0,0,2.359,0v-3.9a27.98,27.98,0,0,0-1.769-9.849,1.19,1.19,0,0,0-1.51-.7,1.169,1.169,0,0,0-.778,1.109A1.478,1.478,0,0,0,1226.932,199.039Z" transform="translate(-303.921 -102.318)" fill="#cb4f29"/>
    <path id="Trazado_19503" data-name="Trazado 19503" d="M911.117,153.536a23.355,23.355,0,0,0-6.723,12.939,1.193,1.193,0,0,0-.024.212,1.18,1.18,0,0,0,.991,1.144,1.025,1.025,0,0,0,.189.012,1.17,1.17,0,0,0,1.168-.979,21.073,21.073,0,0,1,6.051-11.654,1.132,1.132,0,0,0,.354-.826,1.172,1.172,0,0,0-.342-.837A1.2,1.2,0,0,0,911.117,153.536Z" transform="translate(-28.987 -64.589)" fill="#cb4f29"/>
    <path id="Trazado_19504" data-name="Trazado 19504" d="M1193.908,209.666a1.18,1.18,0,0,0,1.18-1.18V204.76a23.3,23.3,0,0,0-2.477-10.521,1.18,1.18,0,0,0-2.241.507,1.242,1.242,0,0,0,.129.543,21.063,21.063,0,0,1,2.23,9.471v3.727A1.18,1.18,0,0,0,1193.908,209.666Z" transform="translate(-272.819 -99.004)" fill="#cb4f29"/>
    <path id="Trazado_19505" data-name="Trazado 19505" d="M1105.132,122.733a17.574,17.574,0,0,1,1.6,1.793,1.168,1.168,0,0,0,.919.436,1.2,1.2,0,0,0,.744-.248,1.179,1.179,0,0,0,.435-.79,1.2,1.2,0,0,0-.248-.873l-.011-.012a23.877,23.877,0,0,0-1.781-1.982,23.5,23.5,0,0,0-10.3-6.039c-.022-.012-.047-.012-.07-.024h-.025a1.179,1.179,0,0,0-1.427.826,1.027,1.027,0,0,0-.047.318,1.18,1.18,0,0,0,.862,1.132,21.2,21.2,0,0,1,9.34,5.461Z" transform="translate(-191.451 -31.98)" fill="#cb4f29"/>
    <path id="Trazado_19506" data-name="Trazado 19506" d="M907.156,396.783a23.592,23.592,0,0,0,6.168,10.793c.52.519,1.062,1,1.605,1.463.011.012.035.024.047.035a.012.012,0,0,0,.012.012,1.211,1.211,0,0,0,.742.259,1.172,1.172,0,0,0,.909-.425,1.159,1.159,0,0,0,.27-.743,1.193,1.193,0,0,0-.423-.92c-.519-.425-1.014-.885-1.486-1.356a21.04,21.04,0,0,1-5.567-9.719,1.186,1.186,0,0,0-1.427-.849,1.222,1.222,0,0,0-.732.543,1.254,1.254,0,0,0-.129.9.012.012,0,0,1,.012.012Z" transform="translate(-31.325 -270.987)" fill="#cb4f29"/>
    <path id="Trazado_19507" data-name="Trazado 19507" d="M902.37,282.579c0,.366.012.684.024.991a1.18,1.18,0,0,0,1.179,1.132.091.091,0,0,0,.047-.012,1.18,1.18,0,0,0,1.132-1.156v-.059c-.024-.307-.024-.6-.024-.9V269.427a1.18,1.18,0,1,0-2.359,0Z" transform="translate(-27.282 -162.669)" fill="#cb4f29"/>
    <path id="Trazado_19508" data-name="Trazado 19508" d="M987.129,111.842a1.2,1.2,0,0,0,1.249-1.109,1.24,1.24,0,0,0-.295-.849,1.138,1.138,0,0,0-.813-.389c-.461-.035-.92-.047-1.439-.047a23.528,23.528,0,0,0-12.68,3.7,1.162,1.162,0,0,0-.543.991,1.128,1.128,0,0,0,.188.637,1.151,1.151,0,0,0,.992.543,1.115,1.115,0,0,0,.636-.189,21.184,21.184,0,0,1,11.419-3.326c.436,0,.86.012,1.286.035Z" transform="translate(-87.165 -27.283)" fill="#cb4f29"/>
    <path id="Trazado_19509" data-name="Trazado 19509" d="M984.151,492.9a1.194,1.194,0,0,0-.081.9,1.18,1.18,0,0,0,.578.7,23.584,23.584,0,0,0,10.922,2.677,22.556,22.556,0,0,0,3.467-.259,1.168,1.168,0,0,0,1-1.156.876.876,0,0,0-.012-.177,1.2,1.2,0,0,0-1.334-1,21.418,21.418,0,0,1-12.95-2.17,1.211,1.211,0,0,0-1.594.5Z" transform="translate(-96.892 -353.669)" fill="#cb4f29"/>
    <path id="Trazado_19510" data-name="Trazado 19510" d="M935.608,256.719a1.169,1.169,0,0,0-1.226,1.109c0,.008,0,.015,0,.023-.012.271-.012.519-.012.743v14.249a1.179,1.179,0,1,0,2.359-.012V258.595c0-.2,0-.413.012-.649a1.179,1.179,0,0,0-.318-.849,1.149,1.149,0,0,0-.814-.377Z" transform="translate(-54.564 -152.839)" fill="#cb4f29"/>
    <path id="Trazado_19511" data-name="Trazado 19511" d="M1159.385,213.628a1.179,1.179,0,0,0,1.179-1.18v-4.871a18.8,18.8,0,0,0-2.937-10.108c-.012-.024-.024-.035-.037-.059l-.011-.012a1.211,1.211,0,0,0-1.628-.342,1.162,1.162,0,0,0-.543.991,1.208,1.208,0,0,0,.189.637,16.433,16.433,0,0,1,2.607,8.894v4.871a1.18,1.18,0,0,0,1.18,1.18Z" transform="translate(-243.014 -101.821)" fill="#cb4f29"/>
    <path id="Trazado_19512" data-name="Trazado 19512" d="M940.509,162.681a1.4,1.4,0,0,0-.059.377,1.19,1.19,0,0,0,.814,1.121,1.321,1.321,0,0,0,.366.059,1.192,1.192,0,0,0,1.121-.814,16.549,16.549,0,0,1,9.153-9.967,1.163,1.163,0,0,0,.637-.637,1.268,1.268,0,0,0-.012-.908,1.216,1.216,0,0,0-1.546-.625s0,.012-.011.012A18.965,18.965,0,0,0,940.509,162.681Z" transform="translate(-59.748 -62.882)" fill="#cb4f29"/>
    <path id="Trazado_19513" data-name="Trazado 19513" d="M950.339,402.516a16.579,16.579,0,0,1-4.637-3.279,16.386,16.386,0,0,1-4.175-6.995,1.214,1.214,0,0,0-1.474-.8,1.18,1.18,0,0,0-.7.566,1.135,1.135,0,0,0-.094.9,18.961,18.961,0,0,0,10.073,11.748,1.172,1.172,0,0,0,.5.106,1.189,1.189,0,0,0,1.075-.672,1.274,1.274,0,0,0,.1-.519A1.172,1.172,0,0,0,950.339,402.516Z" transform="translate(-58.691 -267.662)" fill="#cb4f29"/>
    <path id="Trazado_19514" data-name="Trazado 19514" d="M1054.527,148.2a1.179,1.179,0,0,0,.779-2.064,18.844,18.844,0,0,0-14.767-4.553h-.024a1.18,1.18,0,0,0-1.026,1.168.807.807,0,0,0,.011.153,1.21,1.21,0,0,0,1.31,1.026h.024a16.381,16.381,0,0,1,12.9,3.975,1.216,1.216,0,0,0,.79.295Z" transform="translate(-144.184 -54.553)" fill="#cb4f29"/>
    <path id="Trazado_19515" data-name="Trazado 19515" d="M967.549,298.648a1.179,1.179,0,0,0-1.18,1.18V308.5a14.184,14.184,0,0,0,1.05,5.379,1.182,1.182,0,0,0,2.275-.436,1.573,1.573,0,0,0-.081-.46H969.6l-.013-.035a11.96,11.96,0,0,1-.86-4.447v-8.669A1.179,1.179,0,0,0,967.549,298.648Z" transform="translate(-81.846 -188.587)" fill="#cb4f29"/>
    <path id="Trazado_19516" data-name="Trazado 19516" d="M1137.887,243.854a1.179,1.179,0,0,0,1.18-1.18v-8.646a14.294,14.294,0,0,0-1.062-5.4,1.2,1.2,0,0,0-1.545-.637,1.18,1.18,0,0,0-.731,1.073,1.146,1.146,0,0,0,.083.448.012.012,0,0,0,.012.012.091.091,0,0,0,.024.059,11.933,11.933,0,0,1,.861,4.447v8.646a1.18,1.18,0,0,0,1.179,1.18Z" transform="translate(-226.234 -128.273)" fill="#cb4f29"/>
    <path id="Trazado_19517" data-name="Trazado 19517" d="M974.025,190.185a1.179,1.179,0,0,0,.507-.743,1.252,1.252,0,0,0-.165-.9,1.216,1.216,0,0,0-1.64-.33,14.136,14.136,0,0,0-6.358,11.819v.932a1.18,1.18,0,0,0,2.359-.024h0v-.908a11.784,11.784,0,0,1,5.3-9.849Z" transform="translate(-81.846 -94.278)" fill="#cb4f29"/>
    <path id="Trazado_19518" data-name="Trazado 19518" d="M1048.7,179.674a1.179,1.179,0,0,0,.071-1.663c-.153-.165-.283-.295-.4-.425a14.242,14.242,0,0,0-13.246-3.774,1.187,1.187,0,0,0-.921,1.156,1.078,1.078,0,0,0,.036.271,1.19,1.19,0,0,0,1.415.873,12.227,12.227,0,0,1,2.7-.307,11.676,11.676,0,0,1,8.338,3.456c.107.106.225.224.342.354a1.217,1.217,0,0,0,.874.377,1.105,1.105,0,0,0,.79-.318Z" transform="translate(-139.677 -81.845)" fill="#cb4f29"/>
    <path id="Trazado_19519" data-name="Trazado 19519" d="M1003.437,423.214a1.171,1.171,0,0,0,.908-1.144,2.332,2.332,0,0,0-.024-.271,1.2,1.2,0,0,0-1.415-.885,12.031,12.031,0,0,1-2.677.307,11.713,11.713,0,0,1-8.339-3.456,3.435,3.435,0,0,1-.354-.366,1.224,1.224,0,0,0-1.675-.071,1.125,1.125,0,0,0-.378.814,1.187,1.187,0,0,0,.306.849l.013.012c.141.153.282.307.413.436a14.1,14.1,0,0,0,10.014,4.14,13.947,13.947,0,0,0,3.208-.366Z" transform="translate(-101.55 -289.516)" fill="#cb4f29"/>
    <path id="Trazado_19520" data-name="Trazado 19520" d="M1000.657,225.4a9.424,9.424,0,0,0-2.287,6.157v9.153a1.179,1.179,0,1,0,2.359,0v-9.153a7.179,7.179,0,0,1,1.71-4.624,1.148,1.148,0,0,0,.282-.767,1.179,1.179,0,0,0-.4-.9,1.225,1.225,0,0,0-1.664.13Z" transform="translate(-109.128 -125.801)" fill="#cb4f29"/>
    <path id="Trazado_19521" data-name="Trazado 19521" d="M1007.806,368.064a9.274,9.274,0,0,0,2.418-.318,1.18,1.18,0,1,0-.6-2.276,7.077,7.077,0,0,1-8.894-6.759v-.083a1.179,1.179,0,1,0-2.359,0v.106A9.473,9.473,0,0,0,1007.806,368.064Z" transform="translate(-109.128 -238.718)" fill="#cb4f29"/>
    <path id="Trazado_19522" data-name="Trazado 19522" d="M1050.641,214.86a1.187,1.187,0,0,0,1.179,1.156h.012a1.194,1.194,0,0,0,1.168-1.168v-.094a9.476,9.476,0,0,0-9.436-9.306,10.017,10.017,0,0,0-2.371.295,1.189,1.189,0,0,0-.72.543,1.249,1.249,0,0,0-.13.9,1.2,1.2,0,0,0,1.439.849,6.947,6.947,0,0,1,1.781-.224,7.105,7.105,0,0,1,7.077,6.959Z" transform="translate(-144.886 -109.128)" fill="#cb4f29"/>
    <path id="Trazado_19523" data-name="Trazado 19523" d="M1041.213,242.165a4.724,4.724,0,0,0-4.718-4.718,4.67,4.67,0,0,0-4.388,2.984,1.13,1.13,0,0,0,.012.9,1.18,1.18,0,0,0,.649.637,1.2,1.2,0,0,0,1.533-.661,2.339,2.339,0,0,1,2.194-1.5,2.366,2.366,0,0,1,2.359,2.359v2.843a1.18,1.18,0,0,0,1.179,1.18l.035-.012a1.18,1.18,0,0,0,1.144-1.168Z" transform="translate(-137.816 -136.41)" fill="#cb4f29"/>
    <path id="Trazado_19524" data-name="Trazado 19524" d="M1031.549,280.968a1.179,1.179,0,0,0-1.179,1.18v11.276a4.758,4.758,0,0,0,.342,1.757,1.162,1.162,0,0,0,1.085.743,1.439,1.439,0,0,0,.448-.083,1.18,1.18,0,0,0,.653-1.535l0-.01a2.4,2.4,0,0,1-.165-.873V282.147a1.179,1.179,0,0,0-1.179-1.18Z" transform="translate(-136.41 -173.514)" fill="#cb4f29"/>
    <path id="Trazado_19525" data-name="Trazado 19525" d="M1060.267,310.387a1.179,1.179,0,1,0-2.359,0V317.5a2.37,2.37,0,0,1-2.335,2.359h-.024a1.238,1.238,0,0,0-.837.342,1.212,1.212,0,0,0-.342.837,1.168,1.168,0,0,0,1.156,1.18h.083a4.735,4.735,0,0,0,4.659-4.718Z" transform="translate(-156.871 -197.59)" fill="#cb4f29"/>
    <path id="Trazado_19526" data-name="Trazado 19526" d="M1334.37,141.448h2.359v2.359h-2.359Z" transform="translate(-395.588 -54.564)" fill="#cb4f29"/>
    <path id="Trazado_19527" data-name="Trazado 19527" d="M1305.908,173.448a3.539,3.539,0,1,0,3.539,3.539A3.538,3.538,0,0,0,1305.908,173.448Zm0,4.718a1.18,1.18,0,1,1,1.179-1.18A1.18,1.18,0,0,1,1305.908,178.166Z" transform="translate(-368.306 -81.846)" fill="#cb4f29"/>
    <path id="Trazado_19528" data-name="Trazado 19528" d="M1302.37,109.448h7.077v2.359h-7.077Z" transform="translate(-368.306 -27.283)" fill="#cb4f29"/>
    <path id="Trazado_19529" data-name="Trazado 19529" d="M1302.37,77.448h2.359v2.359h-2.359Z" transform="translate(-368.306 -0.001)" fill="#cb4f29"/>
    <path id="Trazado_19530" data-name="Trazado 19530" d="M1334.37,77.448h2.359v2.359h-2.359Z" transform="translate(-395.588 -0.001)" fill="#cb4f29"/>
    <path id="Trazado_19531" data-name="Trazado 19531" d="M1302.37,141.448h2.359v2.359h-2.359Z" transform="translate(-368.306 -54.564)" fill="#cb4f29"/>
    <path id="Trazado_19532" data-name="Trazado 19532" d="M1334.37,269.448h2.359v2.359h-2.359Z" transform="translate(-395.588 -163.692)" fill="#cb4f29"/>
    <path id="Trazado_19533" data-name="Trazado 19533" d="M1302.37,237.448h7.077v2.359h-7.077Z" transform="translate(-368.306 -136.41)" fill="#cb4f29"/>
    <path id="Trazado_19534" data-name="Trazado 19534" d="M1302.37,301.448h7.077v2.359h-7.077Z" transform="translate(-368.306 -190.974)" fill="#cb4f29"/>
    <path id="Trazado_19535" data-name="Trazado 19535" d="M1302.37,269.448h2.359v2.359h-2.359Z" transform="translate(-368.306 -163.692)" fill="#cb4f29"/>
    <path id="Trazado_19536" data-name="Trazado 19536" d="M1066.752,298.562a1.107,1.107,0,0,0-.226-.046c-.012,0-.021.006-.032.006a15.915,15.915,0,0,0-4.654,0c-.011,0-.02-.006-.032-.006a1.109,1.109,0,0,0-.226.046,17.524,17.524,0,0,0-4.865,1.457,1.056,1.056,0,0,0-.205.1,17.771,17.771,0,0,0-4.946,3.527c-.02.02-.037.041-.055.063a17.8,17.8,0,0,0-2.984,4.091,9.375,9.375,0,0,0,.308-2.37v-9.2a1.179,1.179,0,1,0-2.359,0v9.2a7.078,7.078,0,0,1-1.688,4.588,1.146,1.146,0,0,0-.282.767,1.18,1.18,0,0,0,2.076.767,9.481,9.481,0,0,0,.837-1.168,17.579,17.579,0,0,0-.885,4.438c-.223.17-.443.33-.664.472a1.17,1.17,0,0,0-.507.743,1.264,1.264,0,0,0,.165.9,1.2,1.2,0,0,0,.991.531h.025a17.521,17.521,0,0,0,.413,2.635,16.859,16.859,0,0,1-10.169,1.651,1.179,1.179,0,0,0-1.346.979,1.162,1.162,0,0,0,.949,1.341l.02,0h.011a18.83,18.83,0,0,0,11.245-1.68,17.71,17.71,0,0,0,.973,2.134,19.605,19.605,0,0,1-1.826.8,1.18,1.18,0,0,0,.413,2.288,1.216,1.216,0,0,0,.413-.071c.78-.3,1.541-.652,2.288-1.027a17.676,17.676,0,1,0,16.822-27.943Zm-2.586,32.815a15.334,15.334,0,1,1,15.334-15.334A15.334,15.334,0,0,1,1064.166,331.377Z" transform="translate(-140.718 -185.518)" fill="#cb4f29"/>
    <path id="Trazado_19537" data-name="Trazado 19537" d="M1187.227,378.483a1.18,1.18,0,0,0-1.668,0l-6.934,6.933-2.216-2.215a1.179,1.179,0,0,0-1.668,0l-3.336,3.336a1.18,1.18,0,0,0,0,1.668l6.386,6.387a1.18,1.18,0,0,0,1.668,0l11.1-11.105a1.18,1.18,0,0,0,0-1.668Zm-8.6,13.607-4.718-4.718,1.668-1.669,2.216,2.215a1.18,1.18,0,0,0,1.668,0l6.934-6.933,1.668,1.668Z" transform="translate(-256.356 -256.357)" fill="#cb4f29"/>
  </g>
</svg>
