<svg xmlns="http://www.w3.org/2000/svg" width="74" height="86.149" viewBox="0 0 74 86.149">
  <g id="Grupo_7987" data-name="Grupo 7987" transform="translate(-908.842 -1151.638)">
    <path id="Trazado_19577" data-name="Trazado 19577" d="M967.831,1171.032l3.665-6.375a1.268,1.268,0,0,0-.467-1.731l-5.182-2.977a1.268,1.268,0,0,0-1.731.468l-3.659,6.369a36.7,36.7,0,0,0-10.359-2.763v-3.875h2.572a1.268,1.268,0,0,0,1.268-1.268v-5.975a1.267,1.267,0,0,0-1.266-1.268H939.015a1.267,1.267,0,0,0-1.268,1.266h0v5.975a1.268,1.268,0,0,0,1.268,1.268h2.572v3.871a36.7,36.7,0,0,0-10.359,2.763l-3.659-6.368a1.267,1.267,0,0,0-1.729-.469h0l-5.182,2.977a1.268,1.268,0,0,0-.467,1.731l3.665,6.379a37,37,0,1,0,43.978,0Zm-2.148-8.259,2.982,1.718-2.932,5.1q-1.449-.926-2.98-1.718Zm-25.4-8.6H951.4v3.44H940.283Zm3.839,5.975h3.44v3.663c-.57-.027-1.14-.045-1.72-.045s-1.15.017-1.72.044Zm-21.1,4.343,2.982-1.713,2.93,5.1q-1.532.791-2.98,1.718Zm22.823,70.736a34.462,34.462,0,1,1,34.462-34.462h0A34.5,34.5,0,0,1,945.842,1235.228Z" fill="#cb4f29"/>
    <path id="Trazado_19578" data-name="Trazado 19578" d="M1008.149,1307.246a28.63,28.63,0,0,0-.078-28.664,1.142,1.142,0,0,0-.058-.127,1.176,1.176,0,0,0-.072-.1,28.935,28.935,0,0,0-10.219-10.165,1.1,1.1,0,0,0-.109-.079,1.159,1.159,0,0,0-.127-.057,28.627,28.627,0,0,0-28.662.078,1.323,1.323,0,0,0-.129.059,1.2,1.2,0,0,0-.1.073,28.942,28.942,0,0,0-10.167,10.219.692.692,0,0,0-.135.235,28.629,28.629,0,0,0,.078,28.663,1.3,1.3,0,0,0,.058.127c.016.028.04.048.057.073a28.934,28.934,0,0,0,10.231,10.188,1.256,1.256,0,0,0,.111.08c.032.018.067.025.1.041a28.634,28.634,0,0,0,28.724-.082c.031-.015.064-.022.095-.04a1.066,1.066,0,0,0,.1-.072,28.94,28.94,0,0,0,10.184-10.246c.02-.028.044-.049.062-.08A1.027,1.027,0,0,0,1008.149,1307.246Zm-10.609,7.659-1.629-2.777a1.268,1.268,0,0,0-2.188,1.282l1.631,2.783a26.007,26.007,0,0,1-10.866,2.957v-3.235a1.268,1.268,0,1,0-2.536,0v3.235a26,26,0,0,1-10.732-2.893l1.615-2.791a1.268,1.268,0,0,0-2.194-1.27l-1.613,2.788a26.4,26.4,0,0,1-7.728-7.685l2.78-1.629a1.268,1.268,0,0,0-1.281-2.188l-2.783,1.631a26.008,26.008,0,0,1-2.958-10.867h3.235a1.268,1.268,0,0,0,0-2.536h-3.235a26.007,26.007,0,0,1,2.891-10.735l2.792,1.615a1.268,1.268,0,0,0,1.269-2.194l-2.788-1.613a26.4,26.4,0,0,1,7.683-7.725l1.629,2.78a1.268,1.268,0,0,0,2.188-1.281l-1.631-2.783a26,26,0,0,1,10.867-2.957v3.234a1.268,1.268,0,0,0,2.536,0v-3.234a26.008,26.008,0,0,1,10.735,2.891l-1.618,2.793a1.268,1.268,0,1,0,2.177,1.3l.017-.029,1.613-2.791a26.4,26.4,0,0,1,7.728,7.686l-2.78,1.629a1.268,1.268,0,1,0,1.272,2.194l.01-.006,2.784-1.631a26.018,26.018,0,0,1,2.957,10.867h-3.235a1.268,1.268,0,1,0,0,2.535h3.235a26.007,26.007,0,0,1-2.891,10.732l-2.791-1.615a1.268,1.268,0,1,0-1.27,2.2h0l2.788,1.613A26.4,26.4,0,0,1,997.539,1314.9Z" transform="translate(-37.38 -92.217)" fill="#cb4f29"/>
    <path id="Trazado_19579" data-name="Trazado 19579" d="M1106.067,1336.447a1.268,1.268,0,0,0-1.268-1.268h-12.207a5.805,5.805,0,0,0-4.379-4.379v-12.206a1.268,1.268,0,1,0-2.536,0V1330.8a5.789,5.789,0,1,0,6.914,6.915H1104.8A1.269,1.269,0,0,0,1106.067,1336.447Zm-19.121,3.255a3.256,3.256,0,1,1,3.255-3.256h0A3.26,3.26,0,0,1,1086.946,1339.7Z" transform="translate(-141.104 -135.681)" fill="#cb4f29"/>
  </g>
</svg>
